<?xml version="1.0" standalone="no"?>
<!DOCTYPE svg PUBLIC "-//W3C//DTD SVG 20010904//EN"
 "http://www.w3.org/TR/2001/REC-SVG-20010904/DTD/svg10.dtd">
<svg version="1.0" xmlns="http://www.w3.org/2000/svg"
 width="512.000000pt" height="512.000000pt" viewBox="0 0 512.000000 512.000000"
 preserveAspectRatio="xMidYMid meet">
<metadata>
Created by potrace 1.14, written by Peter Selinger 2001-2017
</metadata>
<g transform="translate(0.000000,512.000000) scale(0.100000,-0.100000)"
fill="#000000" stroke="none">
<path d="M2544 4383 c-6 -10 -22 -38 -36 -63 -14 -25 -83 -144 -153 -265 -71
-121 -138 -238 -150 -260 -12 -22 -69 -121 -127 -220 -110 -189 -286 -493
-407 -705 -39 -69 -75 -132 -80 -140 -13 -20 -108 -184 -139 -240 -14 -25 -42
-73 -63 -107 -21 -34 -50 -83 -64 -110 -14 -26 -34 -63 -45 -81 -24 -40 -466
-805 -627 -1085 -63 -109 -116 -204 -119 -210 -3 -9 487 -12 2026 -12 1631 0
2029 2 2025 13 -2 7 -71 128 -153 270 -82 141 -160 277 -174 302 -14 25 -73
126 -130 225 -57 99 -165 286 -240 416 -75 129 -193 333 -262 453 -69 119
-136 236 -149 259 -13 23 -81 141 -152 262 -70 121 -137 237 -149 258 -11 21
-25 46 -31 55 -5 10 -138 239 -294 510 -157 270 -287 492 -291 492 -3 0 -10
-8 -16 -17z m156 -915 c74 -128 221 -383 327 -567 106 -183 193 -335 193 -338
0 -2 8 -16 19 -31 15 -22 205 -349 274 -472 10 -19 62 -109 115 -200 52 -91
153 -265 223 -388 71 -122 129 -226 129 -230 0 -4 -639 -7 -1420 -7 -781 0
-1420 4 -1420 8 0 5 12 29 28 55 34 59 34 58 115 199 37 65 79 138 93 161 34
61 652 1130 674 1167 9 17 43 75 75 130 32 55 63 109 69 120 53 98 362 625
366 625 3 0 66 -105 140 -232z"/>
</g>
</svg>
